HIERARCHY
ROOT Hips
{
  OFFSET 49.2204 81.7927 7.68629
  CHANNELS 6 Xposition Yposition Zposition Zrotation Xrotation Yrotation
  JOINT spine
  {
    OFFSET 0 6.24479 0.359107
    CHANNELS 3 Zrotation Xrotation Yrotation
    JOINT spine1
    {
      OFFSET 0 9.06941 0
      CHANNELS 3 Zrotation Xrotation Yrotation
      JOINT spine2
      {
        OFFSET 0 8.69014 0
        CHANNELS 3 Zrotation Xrotation Yrotation
        JOINT Neck
        {
          OFFSET 0 22.3112 1.06372
          CHANNELS 3 Zrotation Xrotation Yrotation
          JOINT Head
          {
            OFFSET 0 6.74081 0
            CHANNELS 3 Zrotation Xrotation Yrotation
            End Site
            {
              OFFSET 0 16.3165 -5.38097
            }
          }
        }
        JOINT RightShoulder
        {
          OFFSET -3.65916 9.38468 -0.509514
          CHANNELS 3 Zrotation Xrotation Yrotation
          JOINT RightArm
          {
            OFFSET 0 12.3089 0
            CHANNELS 3 Zrotation Xrotation Yrotation
            JOINT RightArmRoll
            {
              OFFSET 0 6.21375 0
              CHANNELS 3 Zrotation Xrotation Yrotation
              JOINT RightForeArm
              {
                OFFSET 0 18.0985 0
                CHANNELS 3 Zrotation Xrotation Yrotation
                JOINT RightForeArmRoll
                {
                  OFFSET 0 6.97279 0
                  CHANNELS 3 Zrotation Xrotation Yrotation
                  JOINT RightHand
                  {
                    OFFSET 0 13.9929 0
                    CHANNELS 3 Zrotation Xrotation Yrotation
                    End Site
                    {
                      OFFSET 0 0 0
                    }
                  }
                }
              }
            }
          }
        }
        JOINT LeftShoulder
        {
          OFFSET 3.65916 9.38468 -0.509514
          CHANNELS 3 Zrotation Xrotation Yrotation
          JOINT LeftArm
          {
            OFFSET 0 12.3089 0
            CHANNELS 3 Zrotation Xrotation Yrotation
            JOINT LeftArmRoll
            {
              OFFSET 0 6.21375 0
              CHANNELS 3 Zrotation Xrotation Yrotation
              JOINT LeftForeArm
              {
                OFFSET 0 18.0985 0
                CHANNELS 3 Zrotation Xrotation Yrotation
                JOINT LeftForeArmRoll
                {
                  OFFSET 0 6.97279 0
                  CHANNELS 3 Zrotation Xrotation Yrotation
                  JOINT LeftHand
                  {
                    OFFSET 0 13.9929 0
                    CHANNELS 3 Zrotation Xrotation Yrotation
                    End Site
                    {
                      OFFSET 0 0 0
                    }
                  }
                }
              }
            }
          }
        }
      }
    }
  }
  JOINT RightUpLeg
  {
    OFFSET -5.53515 -1.015 -0.851454
    CHANNELS 3 Zrotation Xrotation Yrotation
    JOINT RightUpLegRoll
    {
      OFFSET 0 16.4075 0
      CHANNELS 3 Zrotation Xrotation Yrotation
      JOINT RightLeg
      {
        OFFSET 0 -20.3181 0
        CHANNELS 3 Zrotation Xrotation Yrotation
        JOINT RightLegRoll
        {
          OFFSET 0 20.3846 0
          CHANNELS 3 Zrotation Xrotation Yrotation
          JOINT RightFoot
          {
            OFFSET 0 16.9668 0
            CHANNELS 3 Zrotation Xrotation Yrotation
            JOINT RightToeBase
            {
              OFFSET 0 14.1834 0
              CHANNELS 3 Zrotation Xrotation Yrotation
              End Site
              {
                OFFSET 0.0060118 6.8689 -0.791746
              }
            }
          }
        }
      }
    }
  }
  JOINT LeftUpLeg
  {
    OFFSET 5.53515 -1.015 -0.851454
    CHANNELS 3 Zrotation Xrotation Yrotation
    JOINT LeftUpLegRoll
    {
      OFFSET 0 16.4076 0
      CHANNELS 3 Zrotation Xrotation Yrotation
      JOINT LeftLeg
      {
        OFFSET 0 20.3181 0
        CHANNELS 3 Zrotation Xrotation Yrotation
        JOINT LeftLegRoll
        {
          OFFSET 0 20.5731 0
          CHANNELS 3 Zrotation Xrotation Yrotation
          JOINT LeftFoot
          {
            OFFSET 0 16.7783 0
            CHANNELS 3 Zrotation Xrotation Yrotation
            JOINT LeftToeBase
            {
              OFFSET 0 14.1834 0
              CHANNELS 3 Zrotation Xrotation Yrotation
              End Site
              {
                OFFSET -0.0269423 6.8689 -0.791746
              }
            }
          }
        }
      }
    }
  }
}
MOTION
Frames: 5
Frame Time: 0.00208333
40.2475 83.704 4.93433 0.744501 1.01913 0.822168 -0.0998449 -1.10707 -0.0590725 -0.224742 1.78877 -0.106184 -0.223661 3.43383 -0.102484 5.24029 12.1565 0.506373 -8.15309 6.23101 1.90715 64.5533 -4.56525 -3.17584 114.217 21.1223 -44.9517 -1.75175e-006 -2.28941e-006 2.28553e-006 36.1824 68.0356 -28.3285 -6.50626e-007 -6.14157e-006 -3 8.02887 -4.95097 0.697436 -61.4105 -4.98682 3.21615 -119.154 15.205 29.6085 4.28111e-006 7.70166e-007 4.37759e-006 -22.1405 70.8436 20.0446 6.40005e-006 -7.08879e-007 3 -8.02941 -4.95108 -0.697562 176.207 12.3204 1.04684 180 7.01581e-015 179.081 179.002 17.4546 179.051 -2.2066e-006 -3.05657e-006 0.158215 -18.1573 69.4371 20.758 8.12908 25.2331 -3.48458 -174.268 6.82649 -2.44347 4.54188e-006 -4.6773e-006 -0.799302 -0.0899518 -15.1784 1.19795 -1.60306e-007 3.14476e-006 -0.173101 19.0295 72.3233 -23.493 -8.128 25.2378 3.47432 
40.1969 83.6906 4.88369 0.752064 1.00209 0.837028 -0.0998245 -1.10445 -0.058587 -0.223945 1.794 -0.105193 -0.222874 3.43907 -0.101504 5.21457 12.1388 0.526979 -8.15292 6.24474 1.92003 64.5297 -4.56308 -3.17305 114.264 21.1136 -44.9223 -1.75175e-006 -2.28941e-006 2.28553e-006 36.1539 68.0463 -28.3162 -6.50626e-007 -6.14157e-006 -3 8.02887 -4.95097 0.697436 -61.4153 -4.98691 3.21651 -119.173 15.2178 29.6196 4.28111e-006 7.70166e-007 4.37759e-006 -22.1448 70.8681 20.0575 6.40005e-006 -7.08879e-007 3 -8.02941 -4.95108 -0.697562 176.213 12.3045 1.04388 180 7.01581e-015 179.081 179.005 17.4656 179.05 -2.2066e-006 -3.05657e-006 0.158215 -18.1548 69.4467 20.7651 8.12908 25.2331 -3.48458 -174.268 6.81947 -2.44117 4.54188e-006 -4.6773e-006 -0.799735 -0.0824903 -15.1945 1.19895 -1.60306e-007 3.14476e-006 -0.17372 19.0437 72.3284 -23.5007 -8.128 25.2378 3.47432 
40.1899 83.6983 4.88885 0.759706 0.985043 0.851523 -0.0997944 -1.10181 -0.0580746 -0.22313 1.79928 -0.104128 -0.222071 3.44435 -0.10045 5.18803 12.1202 0.547908 -8.15183 6.25969 1.93305 64.5058 -4.56 -3.16973 114.311 21.1045 -44.892 -1.75175e-006 -2.28941e-006 2.28553e-006 36.1249 68.0575 -28.3037 -6.50626e-007 -6.14157e-006 -3 8.02887 -4.95097 0.697436 -61.4203 -4.98705 3.21691 -119.192 15.2297 29.6292 4.28111e-006 7.70166e-007 4.37759e-006 -22.1489 70.8943 20.0711 6.40005e-006 -7.08879e-007 3 -8.02941 -4.95108 -0.697562 176.219 12.2888 1.04083 180 7.01581e-015 179.081 179.008 17.477 179.049 -2.2066e-006 -3.05657e-006 0.158215 -18.1522 69.4565 20.7722 8.12908 25.2331 -3.48458 -174.269 6.81233 -2.43872 4.54188e-006 -4.6773e-006 -0.800144 -0.0749489 -15.2107 1.19998 -1.60306e-007 3.14476e-006 -0.174319 19.0579 72.3336 -23.5086 -8.128 25.2378 3.47432 
40.194 83.7089 4.95281 0.767405 0.967987 0.865762 -0.0997575 -1.09915 -0.0575435 -0.222304 1.80459 -0.103011 -0.221256 3.44966 -0.0993443 5.16094 12.101 0.569063 -8.1501 6.27549 1.94618 64.4816 -4.5563 -3.16605 114.357 21.0951 -44.8611 -1.75175e-006 -2.28941e-006 2.28553e-006 36.0954 68.0689 -28.2912 -6.50626e-007 -6.14157e-006 -3 8.02887 -4.95097 0.697436 -61.4253 -4.98723 3.21734 -119.211 15.2411 29.6377 4.28111e-006 7.70166e-007 4.37759e-006 -22.153 70.922 20.0852 6.40005e-006 -7.08879e-007 3 -8.02941 -4.95108 -0.697562 176.224 12.273 1.03771 180 7.01581e-015 179.081 179.012 17.4885 179.049 -2.2066e-006 -3.05657e-006 0.158215 -18.1495 69.4664 20.7795 8.12908 25.2331 -3.48458 -174.27 6.80512 -2.43618 4.54188e-006 -4.6773e-006 -0.800539 -0.0673514 -15.2269 1.20102 -1.60306e-007 3.14476e-006 -0.174905 19.0722 72.339 -23.5166 -8.128 25.2378 3.47432 
40.1697 83.7044 4.93148 0.77514 0.950926 0.879855 -0.0997167 -1.09649 -0.0570017 -0.221471 1.80992 -0.101864 -0.220435 3.45499 -0.0982088 5.13352 12.0813 0.590344 -8.14802 6.29177 1.95937 64.4573 -4.55224 -3.16215 114.402 21.0855 -44.8298 -1.75175e-006 -2.28941e-006 2.28553e-006 36.0657 68.0805 -28.2785 -6.50626e-007 -6.14157e-006 -3 8.02887 -4.95097 0.697436 -61.4304 -4.98743 3.21779 -119.231 15.2521 29.6457 4.28111e-006 7.70166e-007 4.37759e-006 -22.1571 70.9503 20.0996 6.40005e-006 -7.08879e-007 3 -8.02941 -4.95108 -0.697562 176.23 12.2574 1.03456 180 7.01581e-015 179.081 179.016 17.5 179.048 -2.2066e-006 -3.05657e-006 0.158215 -18.1468 69.4763 20.7868 8.12908 25.2331 -3.48458 -174.271 6.79786 -2.43357 4.54188e-006 -4.6773e-006 -0.800924 -0.0597217 -15.2431 1.20207 -1.60306e-007 3.14476e-006 -0.175484 19.0865 72.3444 -23.5247 -8.128 25.2378 3.47432 
